<?xml version="1.0" encoding="utf-8"?>
<!-- Generator: Adobe Illustrator 24.1.3, SVG Export Plug-In . SVG Version: 6.00 Build 0)  -->
<svg version="1.1" id="Laag_1" xmlns="http://www.w3.org/2000/svg" xmlns:xlink="http://www.w3.org/1999/xlink" x="0px" y="0px"
	 viewBox="0 0 428 428" style="enable-background:new 0 0 428 428;" xml:space="preserve">
<style type="text/css">
	.st0{fill:#FFFFFF;}
</style>
<path class="st0" d="M317.9,251.9H110.1c-11.9,0-21.5,9.6-21.5,21.5s9.6,21.5,21.5,21.5h207.8c11.9,0,21.5-9.6,21.5-21.5
	S329.8,251.9,317.9,251.9z M148,278.9c0,3.3-2.7,6-6,6h-11c-3.3,0-6-2.7-6-6v-11c0-3.3,2.7-6,6-6h11c3.3,0,6,2.7,6,6V278.9z
	 M303,278.9c0,3.3-2.7,6-6,6h-11c-3.3,0-6-2.7-6-6v-11c0-3.3,2.7-6,6-6h11c3.3,0,6,2.7,6,6V278.9z"/>
<path class="st0" d="M53.8,298.9c-3.1-10.2-4.7-20.7-4.8-31.3V246c0.1-6.8,0.8-13.5,2.1-20.1h-15C16.2,225.9,0,242.5,0,262.4
	s16.2,36.5,36.1,36.5L53.8,298.9z"/>
<path class="st0" d="M391.9,225.9h-15c1.3,6.6,2,13.4,2.1,20.1v21.6c-0.1,10.6-1.7,21.1-4.8,31.3h17.6c19.9,0,36.1-16.6,36.1-36.5
	S411.8,225.9,391.9,225.9L391.9,225.9z"/>
<path class="st0" d="M366,246.2c0-53.1-43.1-96.2-96.2-96.2H157.2c-53.1,0-96.2,43.1-96.2,96.2v21.5c0,53.2,43.1,96.2,96.2,96.2
	h112.5c53.1,0,96.2-43.1,96.2-96.2V246.2z M317.9,306.9H110.1c-18.5,0-33.5-15-33.5-33.5c0-18.5,15-33.5,33.5-33.5h207.8
	c18.5,0,33.5,15,33.5,33.5C351.4,291.9,336.4,306.9,317.9,306.9z"/>
<path class="st0" d="M353.9,92.1c-0.1,13.3,9.1,24.8,22.1,27.5v100.4h12V119.6c13-2.7,22.2-14.2,22.1-27.5
	c0-15.5-12.6-28.1-28.1-28.1S353.9,76.6,353.9,92.1L353.9,92.1z"/>
</svg>
