<?xml version="1.0" encoding="utf-8"?>
<!-- Generator: Adobe Illustrator 24.1.3, SVG Export Plug-In . SVG Version: 6.00 Build 0)  -->
<svg version="1.1" id="Laag_1" xmlns="http://www.w3.org/2000/svg" xmlns:xlink="http://www.w3.org/1999/xlink" x="0px" y="0px"
	 viewBox="0 0 448 448" style="enable-background:new 0 0 448 448;" xml:space="preserve">
<style type="text/css">
	.st0{fill:#FFFFFF;}
</style>
<g>
	<g>
		<path class="st0" d="M167.1,279.6c-2.3-2.7-3.4-4.1-4.7-5.4c-28.6-28.6-57.2-57.1-85.8-85.7c-17.4-17.3-45.6-17.5-62.9-0.3
			c-18,18-18.2,45.6-0.3,63.4c40.6,40.5,81.2,81.1,121.9,121.6c17.7,17.6,45.6,17.6,63.2,0c77.6-77.4,155.3-154.8,232.9-232.2
			c1.9-1.9,3.8-3.7,5.5-5.8c10.6-13,14-27.6,8.4-43.4c-5.8-16.4-17.7-26.8-35.1-29.8c-16-2.8-29.3,2.8-40.7,14.1
			c-66,65.9-132.2,131.8-198.2,197.7C169.9,275.3,168.9,277.1,167.1,279.6z"/>
		<path class="st0" d="M167.1,279.6c1.8-2.5,2.8-4.3,4.2-5.7C237.4,208,303.5,142.2,369.6,76.2c11.4-11.3,24.6-16.9,40.7-14.1
			c17.4,3,29.3,13.4,35.1,29.8c5.6,15.8,2.1,30.5-8.4,43.4c-1.7,2.1-3.6,3.9-5.5,5.8c-77.6,77.4-155.3,154.8-232.9,232.2
			c-17.7,17.6-45.6,17.6-63.2,0C94.6,332.8,54,292.2,13.4,251.7c-17.9-17.9-17.8-45.4,0.3-63.4c17.2-17.2,45.5-17.1,62.9,0.3
			c28.6,28.6,57.2,57.1,85.8,85.7C163.7,275.5,164.8,277,167.1,279.6z"/>
	</g>
</g>
</svg>
