<?xml version="1.0" encoding="utf-8"?>
<!-- Generator: Adobe Illustrator 24.1.3, SVG Export Plug-In . SVG Version: 6.00 Build 0)  -->
<svg version="1.1" id="Laag_1" xmlns="http://www.w3.org/2000/svg" xmlns:xlink="http://www.w3.org/1999/xlink" x="0px" y="0px"
	 viewBox="0 0 448 448" style="enable-background:new 0 0 448 448;" xml:space="preserve">
<style type="text/css">
	.st0{fill:#FFFFFF;}
</style>
<polygon class="st0" points="234.7,138.7 234.7,245.3 326,299.5 341.3,273.6 266.7,229.3 266.7,138.7 "/>
<path class="st0" d="M255.9,32C149.8,32,64,118,64,224H0l83.1,83.1l1.5,3.1l86.1-86.2h-64c0-82.5,66.9-149.3,149.3-149.3
	S405.3,141.5,405.3,224S338.4,373.3,256,373.3c-41.3,0-78.5-16.9-105.5-43.8l-30.2,30.2C155,394.5,202.9,416,255.9,416
	C362,416,448,330,448,224S362,32,255.9,32L255.9,32z"/>
</svg>
