<?xml version="1.0" encoding="utf-8"?>
<!-- Generator: Adobe Illustrator 24.1.3, SVG Export Plug-In . SVG Version: 6.00 Build 0)  -->
<svg version="1.1" id="Laag_1" xmlns="http://www.w3.org/2000/svg" xmlns:xlink="http://www.w3.org/1999/xlink" x="0px" y="0px"
	 viewBox="0 0 448 448" style="enable-background:new 0 0 448 448;" xml:space="preserve">
<style type="text/css">
	.st0{fill:#FFFFFF;}
</style>
<path class="st0" d="M224,0C100.5,0,0,100.5,0,224s100.5,224,224,224s224-100.5,224-224S347.5,0,224,0z M306.5,280.1
	c7.3,7.3,7.3,19.1,0,26.4c-3.6,3.6-8.4,5.5-13.2,5.5s-9.6-1.8-13.2-5.5L224,250.4l-56.1,56.1c-3.6,3.6-8.4,5.5-13.2,5.5
	c-4.8,0-9.6-1.8-13.2-5.5c-7.3-7.3-7.3-19.1,0-26.4l56.1-56.1l-56.1-56.1c-7.3-7.3-7.3-19.1,0-26.4c7.3-7.3,19.1-7.3,26.4,0
	l56.1,56.1l56.1-56.1c7.3-7.3,19.1-7.3,26.4,0s7.3,19.1,0,26.4L250.4,224L306.5,280.1z"/>
</svg>
