<?xml version="1.0" encoding="utf-8"?>
<!-- Generator: Adobe Illustrator 24.1.3, SVG Export Plug-In . SVG Version: 6.00 Build 0)  -->
<svg version="1.1" id="Laag_1" xmlns="http://www.w3.org/2000/svg" xmlns:xlink="http://www.w3.org/1999/xlink" x="0px" y="0px"
	 viewBox="0 0 448 448" style="enable-background:new 0 0 448 448;" xml:space="preserve">
<style type="text/css">
	.st0{fill:#FFFFFF;}
</style>
<g>
	<path class="st0" d="M280,242.7c-10.3,0-18.7,8.4-18.7,18.7V336c0,10.3-8.4,18.7-18.7,18.7h-56v-280c0-15.9-10.2-30.2-25.4-35.5
		l-5.5-1.8h86.9c10.3,0,18.7,8.4,18.7,18.7v56c0,10.3,8.3,18.7,18.7,18.7s18.7-8.4,18.7-18.7V56c0-30.9-25.1-56-56-56H42
		c-0.7,0-1.3,0.3-2,0.4C39.1,0.3,38.2,0,37.3,0C16.7,0,0,16.7,0,37.3v336c0,15.9,10.2,30.2,25.4,35.5l112.3,37.4
		c3.8,1.2,7.6,1.7,11.6,1.7c20.6,0,37.3-16.7,37.3-37.3V392h56c30.9,0,56-25.1,56-56v-74.7C298.7,251,290.3,242.7,280,242.7z"/>
	<path class="st0" d="M442.5,173.5l-74.7-74.7c-5.3-5.3-13.4-6.9-20.3-4.1c-7,2.9-11.5,9.7-11.5,17.3v56h-74.7
		c-10.3,0-18.7,8.4-18.7,18.7s8.4,18.7,18.7,18.7H336v56c0,7.5,4.6,14.4,11.5,17.3c7,2.9,15,1.3,20.3-4.1l74.7-74.7
		C449.8,192.6,449.8,180.8,442.5,173.5z"/>
</g>
</svg>
