<?xml version="1.0" encoding="utf-8"?>
<!-- Generator: Adobe Illustrator 24.1.3, SVG Export Plug-In . SVG Version: 6.00 Build 0)  -->
<svg version="1.1" id="Laag_1" xmlns="http://www.w3.org/2000/svg" xmlns:xlink="http://www.w3.org/1999/xlink" x="0px" y="0px"
	 viewBox="0 0 192.7 191.6" style="enable-background:new 0 0 192.7 191.6;" xml:space="preserve">
<style type="text/css">
	.st0{fill:#FFFFFF;}
</style>
<g>
	<g>
		<path class="st0" d="M20.1,19.8c1,0,1.8,0,2.7,0c17.2,0,34.4,0,51.6,0c0.9,0,1.9,0,2.8-0.1c6.6-0.5,10.9-7.3,8.4-13.4
			C84,2.3,80.4,0,75.4,0C54,0,32.6,0,11.3,0C3.9,0,0,3.9,0,11.3c0,56.3,0,112.7,0,169c0,7.3,3.9,11.2,11.3,11.2
			c56.6,0,113.3,0,169.9,0c7.4,0,11.4-4,11.4-11.4c0-21,0-42,0-62.9c0-0.7,0-1.4,0-2.1c-0.4-4-2.4-7-6.2-8.6
			c-3.7-1.5-7.2-0.9-10.3,1.6c-2.9,2.4-3.5,5.6-3.5,9.1c0,17.2,0,34.4,0,51.5c0,0.9,0,1.8,0,2.8c-51,0-101.8,0-152.6,0
			C20.1,121,20.1,70.5,20.1,19.8z M126.2,66.1c0-1.2,0-2,0-2.9c0-12.7,0-25.3,0-38c0-1.2,0-2.4-0.2-3.6c-0.7-3.8-2.9-6.5-6.6-7.7
			c-6.8-2.2-13.1,2.5-13.1,9.9c-0.1,17,0,33.9,0,50.9c0,7.5,3.9,11.4,11.4,11.4c16.8,0,33.5,0,50.3,0c0.7,0,1.4,0,2.1-0.1
			c6.5-0.6,10.5-6.6,8.7-12.8c-1.2-4.3-5.1-6.9-10.2-6.9c-13.2,0-26.4,0-39.6,0C128.2,66.1,127.4,66.1,126.2,66.1z M132.9,59.5
			c4.2,0,8.2,0.1,12.1-0.1c1.1,0,2.5-0.6,3.3-1.3c13.5-13.3,26.9-26.7,40.4-40.1c0.7-0.7,1.4-1.4,2-2.2c1.7-2.4,2.5-5,1.7-7.9
			c-2-8-11.1-10.5-17.2-4.5c-13.9,13.7-27.6,27.4-41.4,41.2c-0.5,0.5-0.9,1.2-0.9,1.8C132.8,50.6,132.9,54.9,132.9,59.5z"/>
		<path class="st0" d="M20.1,19.8c0,50.7,0,101.1,0,151.7c50.8,0,101.6,0,152.6,0c0-1,0-1.9,0-2.8c0-17.2,0-34.4,0-51.5
			c0-3.5,0.6-6.7,3.5-9.1c3.1-2.5,6.6-3.2,10.3-1.6c3.8,1.6,5.8,4.6,6.2,8.6c0.1,0.7,0,1.4,0,2.1c0,21,0,42,0,62.9
			c0,7.4-4,11.4-11.4,11.4c-56.6,0-113.3,0-169.9,0C4,191.6,0,187.7,0,180.4C0,124,0,67.7,0,11.3C0,3.9,3.9,0,11.3,0
			C32.6,0,54,0,75.4,0c5,0,8.6,2.2,10.3,6.3c2.4,6.2-1.8,12.9-8.4,13.4c-0.9,0.1-1.9,0.1-2.8,0.1c-17.2,0-34.4,0-51.6,0
			C21.9,19.8,21.1,19.8,20.1,19.8z"/>
		<path class="st0" d="M126.2,66.1c1.2,0,2,0,2.9,0c13.2,0,26.4,0,39.6,0c5.1,0,9,2.7,10.2,6.9c1.8,6.2-2.2,12.2-8.7,12.8
			c-0.7,0.1-1.4,0.1-2.1,0.1c-16.8,0-33.5,0-50.3,0c-7.5,0-11.4-3.9-11.4-11.4c0-17,0-33.9,0-50.9c0-7.3,6.3-12.1,13.1-9.9
			c3.7,1.2,5.9,3.9,6.6,7.7c0.2,1.2,0.2,2.4,0.2,3.6c0,12.7,0,25.3,0,38C126.2,64,126.2,64.9,126.2,66.1z"/>
		<path class="st0" d="M132.9,59.5c0-4.6,0-8.9,0-13.2c0-0.6,0.4-1.3,0.9-1.8c13.8-13.8,27.5-27.6,41.4-41.2
			c6.1-6,15.2-3.5,17.2,4.5c0.7,2.9-0.1,5.5-1.7,7.9c-0.6,0.8-1.3,1.5-2,2.2c-13.4,13.4-26.9,26.8-40.4,40.1
			c-0.8,0.8-2.2,1.3-3.3,1.3C141,59.6,137.1,59.5,132.9,59.5z"/>
	</g>
</g>
</svg>
