<?xml version="1.0" encoding="utf-8"?>
<!-- Generator: Adobe Illustrator 24.1.3, SVG Export Plug-In . SVG Version: 6.00 Build 0)  -->
<svg version="1.1" id="Laag_1" xmlns="http://www.w3.org/2000/svg" xmlns:xlink="http://www.w3.org/1999/xlink" x="0px" y="0px"
	 viewBox="0 0 192.7 154.9" style="enable-background:new 0 0 192.7 154.9;" xml:space="preserve">
<style type="text/css">
	.st0{fill:#FFFFFF;}
</style>
<g>
	<g>
		<path class="st0" d="M152.3,94.1c-0.3,1.2-0.4,1.8-0.5,2.3c-8.5,26.1-36.8,43.2-63.9,38.7c-14.2-2.4-26.1-8.8-35.7-19.6
			c-3.9-4.4-9.9-4.7-14-0.9c-4,3.7-4.1,9.4-0.3,13.8c13.4,15.1,30.2,23.9,50.3,26.1c36.4,3.9,70.4-18,82.1-52.6
			c0.2-0.6,0.5-1.2,0.8-2.1c1.4,2,2.6,3.7,3.9,5.4c3.5,4.7,9.3,5.8,13.8,2.5c4.4-3.1,5.2-8.9,1.9-13.7c-6-8.5-12-16.9-18-25.3
			c-3.6-5-9.1-5.9-14.1-2.4c-8.4,5.9-16.8,11.8-25.2,17.7c-4.9,3.4-6.1,9.2-3,13.7c3.2,4.6,9.1,5.5,14,2
			C146.8,98,149.2,96.3,152.3,94.1z M21.8,55.2c-1.7-2.3-3.1-4.4-4.8-6.4c-3.2-3.8-8.8-4.5-12.9-1.6C0.1,50-1.4,55.6,1.5,59.7
			C7.8,69,14.4,78.1,21,87.1c2.9,3.9,8.2,4.8,12.2,2.1c9.3-6.3,18.5-12.7,27.5-19.3c4-2.9,4.6-8.8,1.7-12.8
			c-2.9-4.1-8.6-5.3-12.9-2.7c-2.4,1.5-4.7,3.3-7.1,4.9c-0.5,0.4-1.1,0.6-2.1,1.2c0.5-1.4,0.7-2.3,1.1-3.2
			C52.8,26.4,88,10.9,118.5,23.5c8.5,3.5,15.8,8.7,21.9,15.6c2.5,2.8,5.6,4.3,9.4,3.6c7.6-1.4,10.5-10.2,5.2-16.1
			C136.2,5.9,112.8-3.2,85.2,1c-29,4.4-49.5,20.7-61.1,47.8C23.3,50.8,22.7,52.8,21.8,55.2z"/>
		<path class="st0" d="M152.3,94.1c-3.1,2.2-5.5,3.9-8,5.6c-5,3.4-10.9,2.6-14-2c-3.1-4.5-1.9-10.2,3-13.7
			c8.4-5.9,16.8-11.8,25.2-17.7c5-3.5,10.5-2.6,14.1,2.4c6.1,8.4,12.1,16.8,18,25.3c3.4,4.8,2.5,10.5-1.9,13.7
			c-4.5,3.2-10.3,2.1-13.8-2.5c-1.2-1.7-2.5-3.4-3.9-5.4c-0.4,0.9-0.6,1.5-0.8,2.1c-11.7,34.7-45.7,56.6-82.1,52.6
			c-20.1-2.2-36.8-11-50.3-26.1c-3.9-4.4-3.7-10.1,0.3-13.8c4.1-3.7,10.1-3.5,14,0.9c9.6,10.8,21.5,17.2,35.7,19.6
			c27.1,4.5,55.4-12.6,63.9-38.7C151.9,95.9,152,95.4,152.3,94.1z"/>
		<path class="st0" d="M21.8,55.2c0.9-2.3,1.5-4.4,2.3-6.4C35.7,21.6,56.2,5.3,85.2,1c27.6-4.1,51,4.9,69.7,25.6
			c5.3,5.9,2.4,14.7-5.2,16.1c-3.8,0.7-6.9-0.7-9.4-3.6c-6.1-6.9-13.3-12.1-21.9-15.6C88,10.9,52.8,26.4,41.4,57.3
			c-0.3,0.9-0.6,1.8-1.1,3.2c1-0.5,1.6-0.8,2.1-1.2c2.4-1.6,4.7-3.4,7.1-4.9c4.3-2.7,10-1.5,12.9,2.7c2.9,4,2.3,9.9-1.7,12.8
			c-9.1,6.6-18.3,13-27.5,19.3c-4,2.7-9.3,1.8-12.2-2.1C14.4,78.1,7.8,69,1.5,59.7c-2.9-4.2-1.4-9.8,2.7-12.6
			c4.1-2.9,9.7-2.2,12.9,1.6C18.7,50.7,20.1,52.8,21.8,55.2z"/>
	</g>
</g>
</svg>
