<svg enable-background="new 0 0 194 197.6" version="1.1" viewBox="0 0 194 197.6" xml:space="preserve" xmlns="http://www.w3.org/2000/svg">
<style type="text/css">
	.st0{fill:#FFFFFF;}
</style>
<path class="st0" d="m193.8 98.8h-2.1c-55-1.9-109.9-3.8-164.9-5.7-1.8-0.1-3-0.4-3.6-2.5-7.3-25.1-14.8-50.3-22.2-75.4-0.2-0.6-0.4-1.3-0.5-1.9-1.2-4.3-0.2-8 3.2-10.8 3.5-2.9 7.5-3.2 11.5-1.1 6.6 3.4 13 7 19.6 10.6 52.3 28.4 104.7 56.7 157 85.1 0.8 0.4 1.5 0.9 2.2 1.3-0.1 0.1-0.1 0.2-0.2 0.4z"/>
<path class="st0" d="m194 99.3c-0.9 0.5-1.8 1.1-2.8 1.6-58.4 31.7-116.8 63.4-175.3 95-4.4 2.4-8.8 2.2-12.1-0.7-3.6-3.1-4.5-7-3.1-11.5 7.6-25.6 15.2-51.2 22.7-76.9 0.6-2.1 1.9-2.1 3.5-2.2 40.9-1.4 81.8-2.8 122.6-4.3 13.8-0.5 27.6-1 41.5-1.4 0.9 0 1.8-0.1 2.7-0.1 0.1 0.2 0.2 0.4 0.3 0.5z"/>
</svg>