<?xml version="1.0" encoding="utf-8"?>
<!-- Generator: Adobe Illustrator 24.1.3, SVG Export Plug-In . SVG Version: 6.00 Build 0)  -->
<svg version="1.1" id="Laag_1" xmlns="http://www.w3.org/2000/svg" xmlns:xlink="http://www.w3.org/1999/xlink" x="0px" y="0px"
	 viewBox="0 0 428 428" style="enable-background:new 0 0 428 428;" xml:space="preserve">
<style type="text/css">
	.st0{fill:#FFFFFF;}
</style>
<path class="st0" d="M340.5,298v-60.8c0-10.6-8.6-19.2-19.2-19.2H219.5v-59.4c26.1-2.5,46.5-24.5,46.5-51.3
	c0-28.4-23.1-51.5-51.5-51.5S163,78.9,163,107.4c0,26.8,20.4,48.7,46.5,51.3V218H107.7c-10.6,0-19.2,8.6-19.2,19.2V298
	c-19,2.5-33.8,18.7-33.8,38.4c0,21.4,17.3,38.8,38.8,38.8s38.8-17.3,38.8-38.8c0-19.7-14.7-36-33.8-38.4v-60.8
	c0-5.1,4.1-9.2,9.2-9.2h101.8v70c-19,2.5-33.8,18.7-33.8,38.4c0,21.4,17.3,38.8,38.8,38.8s38.8-17.3,38.8-38.8
	c0-19.7-14.7-36-33.8-38.4v-70h101.8c5.1,0,9.2,4.1,9.2,9.2V298c-19,2.5-33.8,18.7-33.8,38.4c0,21.4,17.3,38.8,38.8,38.8
	s38.8-17.3,38.8-38.8C374.3,316.7,359.5,300.4,340.5,298z"/>
</svg>
